<svg xmlns="http://www.w3.org/2000/svg" xmlns:xlink="http://www.w3.org/1999/xlink" width="500" height="500" viewBox="0 0 500 500">
  <defs>
    <clipPath id="clip-custom_1">
      <rect width="500" height="500"/>
    </clipPath>
  </defs>
  <g id="custom_1" data-name="custom – 1" clip-path="url(#clip-custom_1)">
    <rect width="500" height="500" fill="#106e92"/>
    <path id="Icon_awesome-layer-group" data-name="Icon awesome-layer-group" d="M5.115,61l96,43.547a10.553,10.553,0,0,0,8.774,0L205.88,61c6.82-3.095,6.82-13.4,0-16.5L109.888.955a10.553,10.553,0,0,0-8.774,0L5.115,44.5c-6.82,3.095-6.82,13.406,0,16.5ZM205.884,97.383,181.945,86.532l-66.613,30.195a23.755,23.755,0,0,1-19.666,0L29.058,86.532,5.115,97.383c-6.82,3.091-6.82,13.393,0,16.484l96,43.514a10.584,10.584,0,0,0,8.774,0l96-43.514c6.82-3.091,6.82-13.393,0-16.484Zm0,52.667L182.036,139.24l-66.7,30.236a23.755,23.755,0,0,1-19.666,0l-66.7-30.236L5.115,150.05c-6.82,3.091-6.82,13.393,0,16.484l96,43.514a10.584,10.584,0,0,0,8.774,0l96-43.514c6.82-3.091,6.82-13.393,0-16.484Z" transform="translate(145 144.001)" fill="#fff"/>
  </g>
</svg>
